<?xml version="1.0" standalone="no"?>
<!DOCTYPE svg PUBLIC "-//W3C//DTD SVG 20010904//EN"
 "http://www.w3.org/TR/2001/REC-SVG-20010904/DTD/svg10.dtd">
<svg version="1.0" xmlns="http://www.w3.org/2000/svg"
 width="1000.000000pt" height="1000.000000pt" viewBox="0 0 1000.000000 1000.000000"
 preserveAspectRatio="xMidYMid meet">
<metadata>
Created by potrace 1.11, written by Peter Selinger 2001-2013
</metadata>
<g transform="translate(0.000000,1000.000000) scale(0.100000,-0.100000)"
fill="#000000" stroke="none">
<path d="M4719 9996 c-2 -2 -49 -6 -104 -10 -55 -3 -116 -8 -135 -11 -19 -2
-57 -7 -85 -10 -51 -6 -68 -9 -145 -20 -121 -18 -136 -20 -255 -45 -55 -12
-111 -24 -125 -26 -39 -8 -207 -53 -285 -76 -38 -12 -74 -22 -80 -24 -37 -8
-246 -83 -380 -137 -969 -390 -1802 -1088 -2365 -1982 -108 -173 -251 -440
-335 -630 -14 -33 -30 -69 -36 -80 -29 -62 -132 -349 -167 -465 -68 -223 -132
-494 -156 -655 -9 -60 -18 -120 -22 -140 -2 -11 -7 -49 -10 -83 -3 -35 -7 -73
-9 -83 -27 -138 -27 -850 0 -1039 2 -14 6 -52 10 -85 4 -32 9 -68 11 -80 2
-11 6 -39 9 -62 42 -353 209 -925 373 -1283 96 -211 224 -454 310 -590 82
-128 219 -331 257 -378 7 -10 50 -64 96 -121 503 -638 1232 -1189 1980 -1497
249 -103 615 -221 799 -258 14 -3 70 -15 125 -26 99 -20 198 -37 264 -46 19
-2 46 -6 60 -9 24 -3 73 -10 156 -20 220 -27 903 -27 1042 -1 10 2 47 7 83 11
36 4 72 9 81 10 9 2 39 6 67 10 47 6 281 48 327 59 452 105 751 211 1145 404
323 158 660 375 940 605 154 126 223 190 392 359 650 653 1102 1465 1317 2368
24 100 67 324 76 395 3 28 8 57 10 65 2 8 7 44 10 80 4 36 8 81 11 100 26 227
26 873 -1 1030 -2 14 -6 48 -9 75 -8 73 -42 293 -60 381 -162 804 -504 1534
-1020 2174 -60 75 -77 94 -190 219 -89 100 -280 287 -381 375 -49 43 -103 91
-120 105 -50 44 -275 214 -360 272 -478 326 -983 560 -1532 708 -81 22 -159
43 -173 46 -14 2 -47 9 -75 15 -27 6 -61 13 -75 15 -49 10 -316 54 -360 59
-51 6 -146 16 -205 22 -51 5 -691 14 -696 10z m-1029 -2638 c1 -68 1 -547 1
-1065 l0 -943 37 -1 c48 0 2460 0 2529 0 l52 1 0 1003 c0 551 0 1030 1 1065
l0 62 328 -2 327 -3 0 -2477 0 -2478 -327 0 -328 0 0 33 c-1 17 -2 529 -3
1135 l-2 1104 -1260 -1 c-693 0 -1281 0 -1307 -1 l-47 0 2 -1135 2 -1135 -330
2 -330 3 0 2478 0 2477 327 0 328 0 0 -122z"/>
</g>
</svg>
